<?xml version="1.0" standalone="no"?>
<!DOCTYPE svg PUBLIC "-//W3C//DTD SVG 20010904//EN" "http://www.w3.org/TR/2001/REC-SVG-20010904/DTD/svg10.dtd">
<!-- Created using Krita: http://krita.org -->
<svg fill="#D35266" xmlns="http://www.w3.org/2000/svg" 
    xmlns:xlink="http://www.w3.org/1999/xlink"
    xmlns:krita="http://krita.org/namespaces/svg/krita"
    xmlns:sodipodi="http://sodipodi.sourceforge.net/DTD/sodipodi-0.dtd"
    viewBox="12 0 265 288">
<path id="shape0" transform="translate(-68.6448224330896, -56.615795193503)" fill-rule="evenodd" stroke="#000000" stroke-opacity="0" stroke-width="0" stroke-linecap="square" stroke-linejoin="bevel" d="M206.28 120.777L206.259 119.144L206.196 117.522L206.093 115.91L205.948 114.31L205.764 112.721L205.54 111.145L205.277 109.582L204.975 108.033L204.635 106.497L204.258 104.976L203.844 103.47L203.393 101.979L202.906 100.504L202.384 99.0458L201.826 97.6045L201.235 96.1808L200.609 94.7752L199.95 93.3881L199.258 92.0201L198.533 90.6717L197.777 89.3434L196.989 88.0357L196.171 86.7491L195.322 85.4842L194.443 84.2414L193.535 83.0213L192.598 81.8243L191.633 80.6511L190.639 79.502L189.619 78.3777L188.572 77.2786L187.499 76.2052L186.4 75.1581L185.275 74.1378L184.126 73.1448L182.953 72.1795L181.756 71.2425L180.536 70.3344L179.293 69.4556L178.028 68.6067L176.742 67.7881L175.434 67.0003L174.106 66.244L172.757 65.5195L171.389 64.8275L170.002 64.1684L168.596 63.5427L167.173 62.9509L165.732 62.3937L164.273 61.8714L162.798 61.3845L161.308 60.9337L159.801 60.5194L158.28 60.1421L156.745 59.8024L155.195 59.5007L153.632 59.2376L152.056 59.0135L150.467 58.829L148.867 58.6847L147.255 58.5809L145.633 58.5183L144 58.4973L142.367 58.5183L140.745 58.5809L139.133 58.6847L137.533 58.829L135.944 59.0135L134.368 59.2376L132.805 59.5007L131.255 59.8024L129.72 60.1421L128.199 60.5194L126.692 60.9337L125.202 61.3845L123.727 61.8714L122.268 62.3937L120.827 62.9509L119.404 63.5427L117.998 64.1684L116.611 64.8275L115.243 65.5195L113.894 66.244L112.566 67.0003L111.258 67.7881L109.972 68.6067L108.707 69.4556L107.464 70.3344L106.244 71.2425L105.047 72.1795L103.874 73.1448L102.725 74.1378L101.6 75.1581L100.501 76.2052L99.428 77.2786L98.3809 78.3777L97.3605 79.502L96.3675 80.6511L95.4022 81.8243L94.4653 83.0213L93.5571 84.2414L92.6783 85.4842L91.8294 86.7491L91.0108 88.0357L90.223 89.3434L89.4667 90.6717L88.7423 92.0201L88.0502 93.3881L87.3911 94.7752L86.7654 96.1808L86.1737 97.6045L85.6164 99.0458L85.0941 100.504L84.6073 101.979L84.1565 103.47L83.7421 104.976L83.3649 106.497L83.0251 108.033L82.7234 109.582L82.4603 111.145L82.2362 112.721L82.0518 114.31L81.9074 115.91L81.8036 117.522L81.741 119.144L81.72 120.777L81.741 122.41L81.8036 124.033L81.9074 125.644L82.0518 127.245L82.2362 128.833L82.4603 130.409L82.7234 131.972L83.0251 133.522L83.3649 135.058L83.7421 136.579L84.1565 138.085L84.6073 139.576L85.0941 141.051L85.6164 142.509L86.1737 143.95L86.7654 145.374L87.3911 146.779L88.0502 148.166L88.7423 149.534L89.4667 150.883L90.223 152.211L91.0108 153.519L91.8294 154.805L92.6783 156.07L93.5571 157.313L94.4653 158.533L95.4022 159.73L96.3675 160.903L97.3605 162.053L98.3809 163.177L99.428 164.276L100.501 165.349L101.6 166.396L102.725 167.417L103.874 168.41L105.047 169.375L106.244 170.312L107.464 171.22L108.707 172.099L109.972 172.948L111.258 173.766L112.566 174.554L113.894 175.311L115.243 176.035L116.611 176.727L117.998 177.386L119.404 178.012L120.827 178.604L122.268 179.161L123.727 179.683L125.202 180.17L126.692 180.621L128.199 181.035L129.72 181.412L131.255 181.752L132.805 182.054L134.368 182.317L135.944 182.541L137.533 182.726L139.133 182.87L140.745 182.974L142.367 183.036L144 183.057L145.633 183.036L147.255 182.974L148.867 182.87L150.467 182.726L152.056 182.541L153.632 182.317L155.195 182.054L156.745 181.752L158.28 181.412L159.801 181.035L161.308 180.621L162.798 180.17L164.273 179.683L165.732 179.161L167.173 178.604L168.596 178.012L170.002 177.386L171.389 176.727L172.757 176.035L174.106 175.311L175.434 174.554L176.742 173.766L178.028 172.948L179.293 172.099L180.536 171.22L181.756 170.312L182.953 169.375L184.126 168.41L185.275 167.417L186.4 166.396L187.499 165.349L188.572 164.276L189.619 163.177L190.639 162.053L191.633 160.903L192.598 159.73L193.535 158.533L194.443 157.313L195.322 156.07L196.171 154.805L196.989 153.519L197.777 152.211L198.533 150.883L199.258 149.534L199.95 148.166L200.609 146.779L201.235 145.374L201.826 143.95L202.384 142.509L202.906 141.051L203.393 139.576L203.844 138.085L204.258 136.579L204.635 135.058L204.975 133.522L205.277 131.972L205.54 130.409L205.764 128.833L205.948 127.245L206.093 125.644L206.196 124.033L206.259 122.41L206.28 120.777M181.731 120.777L181.696 119.141L181.592 117.522L181.421 115.922L181.184 114.343L180.883 112.786L180.518 111.253L180.092 109.744L179.606 108.262L179.06 106.807L178.457 105.382L177.798 103.987L177.085 102.624L176.318 101.294L175.5 99.9997L174.631 98.7412L173.713 97.5203L172.747 96.3384L171.736 95.197L170.68 94.0975L169.58 93.0413L168.439 92.0298L167.257 91.0644L166.036 90.1466L164.778 89.2777L163.483 88.4592L162.153 87.6925L160.79 86.9789L159.396 86.32L157.97 85.7172L156.516 85.1717L155.033 84.6852L153.525 84.2589L151.991 83.8943L150.434 83.5929L148.855 83.3559L147.256 83.1849L145.637 83.0813L144 83.0464L142.363 83.0813L140.744 83.1849L139.145 83.3559L137.566 83.5929L136.009 83.8943L134.475 84.2589L132.967 84.6852L131.484 85.1717L130.03 85.7172L128.604 86.32L127.21 86.9789L125.847 87.6925L124.517 88.4592L123.222 89.2777L121.964 90.1466L120.743 91.0644L119.561 92.0298L118.42 93.0413L117.32 94.0975L116.264 95.197L115.253 96.3384L114.287 97.5203L113.369 98.7412L112.5 99.9997L111.682 101.294L110.915 102.624L110.202 103.987L109.543 105.382L108.94 106.807L108.394 108.262L107.908 109.744L107.482 111.253L107.117 112.786L106.816 114.343L106.579 115.922L106.408 117.522L106.304 119.141L106.269 120.777L106.304 122.414L106.408 124.033L106.579 125.632L106.816 127.211L107.117 128.768L107.482 130.302L107.908 131.811L108.394 133.293L108.94 134.747L109.543 136.173L110.202 137.568L110.915 138.931L111.682 140.26L112.5 141.555L113.369 142.813L114.287 144.034L115.253 145.216L116.264 146.358L117.32 147.457L118.42 148.513L119.561 149.525L120.743 150.49L121.964 151.408L123.222 152.277L124.517 153.095L125.847 153.862L127.21 154.576L128.604 155.235L130.03 155.837L131.484 156.383L132.967 156.869L134.475 157.296L136.009 157.66L137.566 157.962L139.145 158.199L140.744 158.37L142.363 158.473L144 158.508L145.637 158.473L147.256 158.37L148.855 158.199L150.434 157.962L151.991 157.66L153.525 157.296L155.033 156.869L156.516 156.383L157.97 155.837L159.396 155.235L160.79 154.576L162.153 153.862L163.483 153.095L164.778 152.277L166.036 151.408L167.257 150.49L168.439 149.525L169.58 148.513L170.68 147.457L171.736 146.358L172.747 145.216L173.713 144.034L174.631 142.813L175.5 141.555L176.318 140.26L177.085 138.931L177.798 137.568L178.457 136.173L179.06 134.747L179.606 133.293L180.092 131.811L180.518 130.302L180.883 128.768L181.184 127.211L181.421 125.632L181.592 124.033L181.696 122.414L181.731 120.777"/><path id="shape0" transform="matrix(1.0000000295969 0 0 1.0000000295969 150.364815830763 1.88162781069587)" fill-rule="evenodd" stroke="#000000" stroke-opacity="0" stroke-width="0" stroke-linecap="square" stroke-linejoin="bevel" d="M124.56 62.2797L124.539 60.6467L124.476 59.0247L124.373 57.4127L124.228 55.8127L124.044 54.2237L123.82 52.6477L123.557 51.0847L123.255 49.5357L122.915 47.9997L122.538 46.4787L122.124 44.9727L121.673 43.4817L121.186 42.0067L120.664 40.5485L120.106 39.1072L119.515 37.6835L118.889 36.2779L118.23 34.8908L117.538 33.5228L116.813 32.1744L116.057 30.8461L115.269 29.5384L114.451 28.2518L113.602 26.9869L112.723 25.7441L111.815 24.524L110.878 23.327L109.913 22.1538L108.919 21.0047L107.899 19.8804L106.852 18.7813L105.779 17.7079L104.68 16.6608L103.555 15.6405L102.406 14.6475L101.233 13.6822L100.036 12.7452L98.816 11.8371L97.573 10.9583L96.308 10.1094L95.022 9.2908L93.714 8.503L92.386 7.7467L91.037 7.0222L89.669 6.3302L88.282 5.6711L86.876 5.0454L85.453 4.4536L84.012 3.8964L82.553 3.3741L81.078 2.8872L79.588 2.4364L78.081 2.0221L76.56 1.6448L75.025 1.3051L73.475 1.0034L71.912 0.7403L70.336 0.5162L68.747 0.3317L67.147 0.1874L65.535 0.0836L63.913 0.021L62.28 0L60.647 0.021L59.025 0.0836L57.413 0.1874L55.813 0.3317L54.224 0.5162L52.648 0.7403L51.085 1.0034L49.535 1.3051L48 1.6448L46.479 2.0221L44.972 2.4364L43.482 2.8872L42.007 3.3741L40.548 3.8964L39.107 4.4536L37.684 5.0454L36.278 5.6711L34.891 6.3302L33.523 7.0222L32.174 7.7467L30.846 8.503L29.538 9.2908L28.252 10.1094L26.987 10.9583L25.744 11.8371L24.524 12.7452L23.327 13.6822L22.154 14.6475L21.005 15.6405L19.88 16.6608L18.781 17.7079L17.708 18.7813L16.6609 19.8804L15.6405 21.0047L14.6475 22.1538L13.6822 23.327L12.7453 24.524L11.8371 25.7441L10.9583 26.9869L10.1094 28.2518L9.2908 29.5384L8.503 30.8461L7.7467 32.1744L7.0223 33.5228L6.3302 34.8908L5.6711 36.2779L5.0454 37.6835L4.4537 39.1072L3.8964 40.5485L3.3741 42.0067L2.8873 43.4817L2.4365 44.9727L2.0221 46.4787L1.6449 47.9997L1.3051 49.5357L1.0034 51.0847L0.7403 52.6477L0.5162 54.2237L0.3318 55.8127L0.1874 57.4127L0.0836 59.0247L0.021 60.6467L0 62.2797L0.021 63.9127L0.0836 65.5357L0.1874 67.1467L0.3318 68.7477L0.5162 70.3357L0.7403 71.9117L1.0034 73.4747L1.3051 75.0247L1.6449 76.5607L2.0221 78.0817L2.4365 79.5877L2.8873 81.0787L3.3741 82.5537L3.8964 84.0117L4.4537 85.4527L5.0454 86.8767L5.6711 88.2817L6.3302 89.6687L7.0223 91.0367L7.7467 92.3857L8.503 93.7137L9.2908 95.0217L10.1094 96.3077L10.9583 97.5727L11.8371 98.8157L12.7453 100.036L13.6822 101.233L14.6475 102.406L15.6405 103.556L16.6609 104.68L17.708 105.779L18.781 106.852L19.88 107.899L21.005 108.92L22.154 109.913L23.327 110.878L24.524 111.815L25.744 112.723L26.987 113.602L28.252 114.451L29.538 115.269L30.846 116.057L32.174 116.814L33.523 117.538L34.891 118.23L36.278 118.889L37.684 119.515L39.107 120.107L40.548 120.664L42.007 121.186L43.482 121.673L44.972 122.124L46.479 122.538L48 122.915L49.535 123.255L51.085 123.557L52.648 123.82L54.224 124.044L55.813 124.229L57.413 124.373L59.025 124.477L60.647 124.539L62.28 124.56L63.913 124.539L65.535 124.477L67.147 124.373L68.747 124.229L70.336 124.044L71.912 123.82L73.475 123.557L75.025 123.255L76.56 122.915L78.081 122.538L79.588 122.124L81.078 121.673L82.553 121.186L84.012 120.664L85.453 120.107L86.876 119.515L88.282 118.889L89.669 118.23L91.037 117.538L92.386 116.814L93.714 116.057L95.022 115.269L96.308 114.451L97.573 113.602L98.816 112.723L100.036 111.815L101.233 110.878L102.406 109.913L103.555 108.92L104.68 107.899L105.779 106.852L106.852 105.779L107.899 104.68L108.919 103.556L109.913 102.406L110.878 101.233L111.815 100.036L112.723 98.8157L113.602 97.5727L114.451 96.3077L115.269 95.0217L116.057 93.7137L116.813 92.3857L117.538 91.0367L118.23 89.6687L118.889 88.2817L119.515 86.8767L120.106 85.4527L120.664 84.0117L121.186 82.5537L121.673 81.0787L122.124 79.5877L122.538 78.0817L122.915 76.5607L123.255 75.0247L123.557 73.4747L123.82 71.9117L124.044 70.3357L124.228 68.7477L124.373 67.1467L124.476 65.5357L124.539 63.9127L124.56 62.2797M100.011 62.2797L99.976 60.6437L99.872 59.0247L99.701 57.4247L99.464 55.8457L99.163 54.2887L98.798 52.7557L98.372 51.2467L97.886 49.7647L97.34 48.3097L96.737 46.8847L96.078 45.4897L95.365 44.1267L94.598 42.7967L93.78 41.5024L92.911 40.2439L91.993 39.023L91.027 37.8411L90.016 36.6997L88.96 35.6002L87.86 34.544L86.719 33.5325L85.537 32.5671L84.316 31.6493L83.058 30.7804L81.763 29.9619L80.433 29.1952L79.07 28.4816L77.676 27.8227L76.25 27.2199L74.796 26.6744L73.313 26.1879L71.805 25.7616L70.271 25.397L68.714 25.0956L67.135 24.8586L65.536 24.6876L63.917 24.584L62.28 24.5491L60.643 24.584L59.024 24.6876L57.425 24.8586L55.846 25.0956L54.289 25.397L52.755 25.7616L51.247 26.1879L49.764 26.6744L48.31 27.2199L46.884 27.8227L45.49 28.4816L44.127 29.1952L42.797 29.9619L41.502 30.7804L40.244 31.6493L39.023 32.5671L37.841 33.5325L36.7 34.544L35.6 35.6002L34.544 36.6997L33.533 37.8411L32.567 39.023L31.649 40.2439L30.78 41.5024L29.962 42.7967L29.195 44.1267L28.482 45.4897L27.823 46.8847L27.22 48.3097L26.674 49.7647L26.188 51.2467L25.762 52.7557L25.397 54.2887L25.096 55.8457L24.859 57.4247L24.688 59.0247L24.584 60.6437L24.549 62.2797L24.584 63.9167L24.688 65.5357L24.859 67.1347L25.096 68.7137L25.397 70.2707L25.762 71.8047L26.188 73.3137L26.674 74.7957L27.22 76.2497L27.823 77.6757L28.482 79.0707L29.195 80.4337L29.962 81.7627L30.78 83.0577L31.649 84.3157L32.567 85.5367L33.533 86.7187L34.544 87.8607L35.6 88.9597L36.7 90.0157L37.841 91.0277L39.023 91.9927L40.244 92.9107L41.502 93.7797L42.797 94.5977L44.127 95.3647L45.49 96.0787L46.884 96.7377L48.31 97.3397L49.764 97.8857L51.247 98.3717L52.755 98.7987L54.289 99.1627L55.846 99.4647L57.425 99.7017L59.024 99.8727L60.643 99.9757L62.28 100.011L63.917 99.9757L65.536 99.8727L67.135 99.7017L68.714 99.4647L70.271 99.1627L71.805 98.7987L73.313 98.3717L74.796 97.8857L76.25 97.3397L77.676 96.7377L79.07 96.0787L80.433 95.3647L81.763 94.5977L83.058 93.7797L84.316 92.9107L85.537 91.9927L86.719 91.0277L87.86 90.0157L88.96 88.9597L90.016 87.8607L91.027 86.7187L91.993 85.5367L92.911 84.3157L93.78 83.0577L94.598 81.7627L95.365 80.4337L96.078 79.0707L96.737 77.6757L97.34 76.2497L97.886 74.7957L98.372 73.3137L98.798 71.8047L99.163 70.2707L99.464 68.7137L99.701 67.1347L99.872 65.5357L99.976 63.9167L100.011 62.2797"/><path id="shape01" transform="matrix(0.999999983007813 0 0 0.999999983007813 150.364815830763 161.558519546824)" fill-rule="evenodd" stroke="#000000" stroke-opacity="0" stroke-width="0" stroke-linecap="square" stroke-linejoin="bevel" d="M124.56 62.2797L124.539 60.6467L124.476 59.0247L124.373 57.4127L124.228 55.8127L124.044 54.2237L123.82 52.6477L123.557 51.0847L123.255 49.5357L122.915 47.9997L122.538 46.4787L122.124 44.9727L121.673 43.4817L121.186 42.0067L120.664 40.5485L120.106 39.1072L119.515 37.6835L118.889 36.2779L118.23 34.8908L117.538 33.5228L116.813 32.1744L116.057 30.8461L115.269 29.5384L114.451 28.2518L113.602 26.9869L112.723 25.7441L111.815 24.524L110.878 23.327L109.913 22.1538L108.919 21.0047L107.899 19.8804L106.852 18.7813L105.779 17.7079L104.68 16.6608L103.555 15.6405L102.406 14.6475L101.233 13.6822L100.036 12.7452L98.816 11.8371L97.573 10.9583L96.308 10.1094L95.022 9.2908L93.714 8.503L92.386 7.7467L91.037 7.0222L89.669 6.3302L88.282 5.6711L86.876 5.0454L85.453 4.4536L84.012 3.8964L82.553 3.3741L81.078 2.8872L79.588 2.4364L78.081 2.0221L76.56 1.6448L75.025 1.3051L73.475 1.0034L71.912 0.7403L70.336 0.5162L68.747 0.3317L67.147 0.1874L65.535 0.0836L63.913 0.021L62.28 0L60.647 0.021L59.025 0.0836L57.413 0.1874L55.813 0.3317L54.224 0.5162L52.648 0.7403L51.085 1.0034L49.535 1.3051L48 1.6448L46.479 2.0221L44.972 2.4364L43.482 2.8872L42.007 3.3741L40.548 3.8964L39.107 4.4536L37.684 5.0454L36.278 5.6711L34.891 6.3302L33.523 7.0222L32.174 7.7467L30.846 8.503L29.538 9.2908L28.252 10.1094L26.987 10.9583L25.744 11.8371L24.524 12.7452L23.327 13.6822L22.154 14.6475L21.005 15.6405L19.88 16.6608L18.781 17.7079L17.708 18.7813L16.6609 19.8804L15.6405 21.0047L14.6475 22.1538L13.6822 23.327L12.7453 24.524L11.8371 25.7441L10.9583 26.9869L10.1094 28.2518L9.2908 29.5384L8.503 30.8461L7.7467 32.1744L7.0223 33.5228L6.3302 34.8908L5.6711 36.2779L5.0454 37.6835L4.4537 39.1072L3.8964 40.5485L3.3741 42.0067L2.8873 43.4817L2.4365 44.9727L2.0221 46.4787L1.6449 47.9997L1.3051 49.5357L1.0034 51.0847L0.7403 52.6477L0.5162 54.2237L0.3318 55.8127L0.1874 57.4127L0.0836 59.0247L0.021 60.6467L0 62.2797L0.021 63.9127L0.0836 65.5357L0.1874 67.1467L0.3318 68.7477L0.5162 70.3357L0.7403 71.9117L1.0034 73.4747L1.3051 75.0247L1.6449 76.5607L2.0221 78.0817L2.4365 79.5877L2.8873 81.0787L3.3741 82.5537L3.8964 84.0117L4.4537 85.4527L5.0454 86.8767L5.6711 88.2817L6.3302 89.6687L7.0223 91.0367L7.7467 92.3857L8.503 93.7137L9.2908 95.0217L10.1094 96.3077L10.9583 97.5727L11.8371 98.8157L12.7453 100.036L13.6822 101.233L14.6475 102.406L15.6405 103.556L16.6609 104.68L17.708 105.779L18.781 106.852L19.88 107.899L21.005 108.92L22.154 109.913L23.327 110.878L24.524 111.815L25.744 112.723L26.987 113.602L28.252 114.451L29.538 115.269L30.846 116.057L32.174 116.814L33.523 117.538L34.891 118.23L36.278 118.889L37.684 119.515L39.107 120.107L40.548 120.664L42.007 121.186L43.482 121.673L44.972 122.124L46.479 122.538L48 122.915L49.535 123.255L51.085 123.557L52.648 123.82L54.224 124.044L55.813 124.229L57.413 124.373L59.025 124.477L60.647 124.539L62.28 124.56L63.913 124.539L65.535 124.477L67.147 124.373L68.747 124.229L70.336 124.044L71.912 123.82L73.475 123.557L75.025 123.255L76.56 122.915L78.081 122.538L79.588 122.124L81.078 121.673L82.553 121.186L84.012 120.664L85.453 120.107L86.876 119.515L88.282 118.889L89.669 118.23L91.037 117.538L92.386 116.814L93.714 116.057L95.022 115.269L96.308 114.451L97.573 113.602L98.816 112.723L100.036 111.815L101.233 110.878L102.406 109.913L103.555 108.92L104.68 107.899L105.779 106.852L106.852 105.779L107.899 104.68L108.919 103.556L109.913 102.406L110.878 101.233L111.815 100.036L112.723 98.8157L113.602 97.5727L114.451 96.3077L115.269 95.0217L116.057 93.7137L116.813 92.3857L117.538 91.0367L118.23 89.6687L118.889 88.2817L119.515 86.8767L120.106 85.4527L120.664 84.0117L121.186 82.5537L121.673 81.0787L122.124 79.5877L122.538 78.0817L122.915 76.5607L123.255 75.0247L123.557 73.4747L123.82 71.9117L124.044 70.3357L124.228 68.7477L124.373 67.1467L124.476 65.5357L124.539 63.9127L124.56 62.2797M100.011 62.2797L99.976 60.6437L99.872 59.0247L99.701 57.4247L99.464 55.8457L99.163 54.2887L98.798 52.7557L98.372 51.2467L97.886 49.7647L97.34 48.3097L96.737 46.8847L96.078 45.4897L95.365 44.1267L94.598 42.7967L93.78 41.5024L92.911 40.2439L91.993 39.023L91.027 37.8411L90.016 36.6997L88.96 35.6002L87.86 34.544L86.719 33.5325L85.537 32.5671L84.316 31.6493L83.058 30.7804L81.763 29.9619L80.433 29.1952L79.07 28.4816L77.676 27.8227L76.25 27.2199L74.796 26.6744L73.313 26.1879L71.805 25.7616L70.271 25.397L68.714 25.0956L67.135 24.8586L65.536 24.6876L63.917 24.584L62.28 24.5491L60.643 24.584L59.024 24.6876L57.425 24.8586L55.846 25.0956L54.289 25.397L52.755 25.7616L51.247 26.1879L49.764 26.6744L48.31 27.2199L46.884 27.8227L45.49 28.4816L44.127 29.1952L42.797 29.9619L41.502 30.7804L40.244 31.6493L39.023 32.5671L37.841 33.5325L36.7 34.544L35.6 35.6002L34.544 36.6997L33.533 37.8411L32.567 39.023L31.649 40.2439L30.78 41.5024L29.962 42.7967L29.195 44.1267L28.482 45.4897L27.823 46.8847L27.22 48.3097L26.674 49.7647L26.188 51.2467L25.762 52.7557L25.397 54.2887L25.096 55.8457L24.859 57.4247L24.688 59.0247L24.584 60.6437L24.549 62.2797L24.584 63.9167L24.688 65.5357L24.859 67.1347L25.096 68.7137L25.397 70.2707L25.762 71.8047L26.188 73.3137L26.674 74.7957L27.22 76.2497L27.823 77.6757L28.482 79.0707L29.195 80.4337L29.962 81.7627L30.78 83.0577L31.649 84.3157L32.567 85.5367L33.533 86.7187L34.544 87.8607L35.6 88.9597L36.7 90.0157L37.841 91.0277L39.023 91.9927L40.244 92.9107L41.502 93.7797L42.797 94.5977L44.127 95.3647L45.49 96.0787L46.884 96.7377L48.31 97.3397L49.764 97.8857L51.247 98.3717L52.755 98.7987L54.289 99.1627L55.846 99.4647L57.425 99.7017L59.024 99.8727L60.643 99.9757L62.28 100.011L63.917 99.9757L65.536 99.8727L67.135 99.7017L68.714 99.4647L70.271 99.1627L71.805 98.7987L73.313 98.3717L74.796 97.8857L76.25 97.3397L77.676 96.7377L79.07 96.0787L80.433 95.3647L81.763 94.5977L83.058 93.7797L84.316 92.9107L85.537 91.9927L86.719 91.0277L87.86 90.0157L88.96 88.9597L90.016 87.8607L91.027 86.7187L91.993 85.5367L92.911 84.3157L93.78 83.0577L94.598 81.7627L95.365 80.4337L96.078 79.0707L96.737 77.6757L97.34 76.2497L97.886 74.7957L98.372 73.3137L98.798 71.8047L99.163 70.2707L99.464 68.7137L99.701 67.1347L99.872 65.5357L99.976 63.9167L100.011 62.2797"/><path id="shape02" transform="matrix(0.999999983007813 0 0 0.999999983007813 13.0751804826465 161.558519546824)" fill-rule="evenodd" stroke="#000000" stroke-opacity="0" stroke-width="0" stroke-linecap="square" stroke-linejoin="bevel" d="M124.56 62.2797L124.539 60.6467L124.476 59.0247L124.373 57.4127L124.228 55.8127L124.044 54.2237L123.82 52.6477L123.557 51.0847L123.255 49.5357L122.915 47.9997L122.538 46.4787L122.124 44.9727L121.673 43.4817L121.186 42.0067L120.664 40.5485L120.106 39.1072L119.515 37.6835L118.889 36.2779L118.23 34.8908L117.538 33.5228L116.813 32.1744L116.057 30.8461L115.269 29.5384L114.451 28.2518L113.602 26.9869L112.723 25.7441L111.815 24.524L110.878 23.327L109.913 22.1538L108.919 21.0047L107.899 19.8804L106.852 18.7813L105.779 17.7079L104.68 16.6608L103.555 15.6405L102.406 14.6475L101.233 13.6822L100.036 12.7452L98.816 11.8371L97.573 10.9583L96.308 10.1094L95.022 9.2908L93.714 8.503L92.386 7.7467L91.037 7.0222L89.669 6.3302L88.282 5.6711L86.876 5.0454L85.453 4.4536L84.012 3.8964L82.553 3.3741L81.078 2.8872L79.588 2.4364L78.081 2.0221L76.56 1.6448L75.025 1.3051L73.475 1.0034L71.912 0.7403L70.336 0.5162L68.747 0.3317L67.147 0.1874L65.535 0.0836L63.913 0.021L62.28 0L60.647 0.021L59.025 0.0836L57.413 0.1874L55.813 0.3317L54.224 0.5162L52.648 0.7403L51.085 1.0034L49.535 1.3051L48 1.6448L46.479 2.0221L44.972 2.4364L43.482 2.8872L42.007 3.3741L40.548 3.8964L39.107 4.4536L37.684 5.0454L36.278 5.6711L34.891 6.3302L33.523 7.0222L32.174 7.7467L30.846 8.503L29.538 9.2908L28.252 10.1094L26.987 10.9583L25.744 11.8371L24.524 12.7452L23.327 13.6822L22.154 14.6475L21.005 15.6405L19.88 16.6608L18.781 17.7079L17.708 18.7813L16.6609 19.8804L15.6405 21.0047L14.6475 22.1538L13.6822 23.327L12.7453 24.524L11.8371 25.7441L10.9583 26.9869L10.1094 28.2518L9.2908 29.5384L8.503 30.8461L7.7467 32.1744L7.0223 33.5228L6.3302 34.8908L5.6711 36.2779L5.0454 37.6835L4.4537 39.1072L3.8964 40.5485L3.3741 42.0067L2.8873 43.4817L2.4365 44.9727L2.0221 46.4787L1.6449 47.9997L1.3051 49.5357L1.0034 51.0847L0.7403 52.6477L0.5162 54.2237L0.3318 55.8127L0.1874 57.4127L0.0836 59.0247L0.021 60.6467L0 62.2797L0.021 63.9127L0.0836 65.5357L0.1874 67.1467L0.3318 68.7477L0.5162 70.3357L0.7403 71.9117L1.0034 73.4747L1.3051 75.0247L1.6449 76.5607L2.0221 78.0817L2.4365 79.5877L2.8873 81.0787L3.3741 82.5537L3.8964 84.0117L4.4537 85.4527L5.0454 86.8767L5.6711 88.2817L6.3302 89.6687L7.0223 91.0367L7.7467 92.3857L8.503 93.7137L9.2908 95.0217L10.1094 96.3077L10.9583 97.5727L11.8371 98.8157L12.7453 100.036L13.6822 101.233L14.6475 102.406L15.6405 103.556L16.6609 104.68L17.708 105.779L18.781 106.852L19.88 107.899L21.005 108.92L22.154 109.913L23.327 110.878L24.524 111.815L25.744 112.723L26.987 113.602L28.252 114.451L29.538 115.269L30.846 116.057L32.174 116.814L33.523 117.538L34.891 118.23L36.278 118.889L37.684 119.515L39.107 120.107L40.548 120.664L42.007 121.186L43.482 121.673L44.972 122.124L46.479 122.538L48 122.915L49.535 123.255L51.085 123.557L52.648 123.82L54.224 124.044L55.813 124.229L57.413 124.373L59.025 124.477L60.647 124.539L62.28 124.56L63.913 124.539L65.535 124.477L67.147 124.373L68.747 124.229L70.336 124.044L71.912 123.82L73.475 123.557L75.025 123.255L76.56 122.915L78.081 122.538L79.588 122.124L81.078 121.673L82.553 121.186L84.012 120.664L85.453 120.107L86.876 119.515L88.282 118.889L89.669 118.23L91.037 117.538L92.386 116.814L93.714 116.057L95.022 115.269L96.308 114.451L97.573 113.602L98.816 112.723L100.036 111.815L101.233 110.878L102.406 109.913L103.555 108.92L104.68 107.899L105.779 106.852L106.852 105.779L107.899 104.68L108.919 103.556L109.913 102.406L110.878 101.233L111.815 100.036L112.723 98.8157L113.602 97.5727L114.451 96.3077L115.269 95.0217L116.057 93.7137L116.813 92.3857L117.538 91.0367L118.23 89.6687L118.889 88.2817L119.515 86.8767L120.106 85.4527L120.664 84.0117L121.186 82.5537L121.673 81.0787L122.124 79.5877L122.538 78.0817L122.915 76.5607L123.255 75.0247L123.557 73.4747L123.82 71.9117L124.044 70.3357L124.228 68.7477L124.373 67.1467L124.476 65.5357L124.539 63.9127L124.56 62.2797M100.011 62.2797L99.976 60.6437L99.872 59.0247L99.701 57.4247L99.464 55.8457L99.163 54.2887L98.798 52.7557L98.372 51.2467L97.886 49.7647L97.34 48.3097L96.737 46.8847L96.078 45.4897L95.365 44.1267L94.598 42.7967L93.78 41.5024L92.911 40.2439L91.993 39.023L91.027 37.8411L90.016 36.6997L88.96 35.6002L87.86 34.544L86.719 33.5325L85.537 32.5671L84.316 31.6493L83.058 30.7804L81.763 29.9619L80.433 29.1952L79.07 28.4816L77.676 27.8227L76.25 27.2199L74.796 26.6744L73.313 26.1879L71.805 25.7616L70.271 25.397L68.714 25.0956L67.135 24.8586L65.536 24.6876L63.917 24.584L62.28 24.5491L60.643 24.584L59.024 24.6876L57.425 24.8586L55.846 25.0956L54.289 25.397L52.755 25.7616L51.247 26.1879L49.764 26.6744L48.31 27.2199L46.884 27.8227L45.49 28.4816L44.127 29.1952L42.797 29.9619L41.502 30.7804L40.244 31.6493L39.023 32.5671L37.841 33.5325L36.7 34.544L35.6 35.6002L34.544 36.6997L33.533 37.8411L32.567 39.023L31.649 40.2439L30.78 41.5024L29.962 42.7967L29.195 44.1267L28.482 45.4897L27.823 46.8847L27.22 48.3097L26.674 49.7647L26.188 51.2467L25.762 52.7557L25.397 54.2887L25.096 55.8457L24.859 57.4247L24.688 59.0247L24.584 60.6437L24.549 62.2797L24.584 63.9167L24.688 65.5357L24.859 67.1347L25.096 68.7137L25.397 70.2707L25.762 71.8047L26.188 73.3137L26.674 74.7957L27.22 76.2497L27.823 77.6757L28.482 79.0707L29.195 80.4337L29.962 81.7627L30.78 83.0577L31.649 84.3157L32.567 85.5367L33.533 86.7187L34.544 87.8607L35.6 88.9597L36.7 90.0157L37.841 91.0277L39.023 91.9927L40.244 92.9107L41.502 93.7797L42.797 94.5977L44.127 95.3647L45.49 96.0787L46.884 96.7377L48.31 97.3397L49.764 97.8857L51.247 98.3717L52.755 98.7987L54.289 99.1627L55.846 99.4647L57.425 99.7017L59.024 99.8727L60.643 99.9757L62.28 100.011L63.917 99.9757L65.536 99.8727L67.135 99.7017L68.714 99.4647L70.271 99.1627L71.805 98.7987L73.313 98.3717L74.796 97.8857L76.25 97.3397L77.676 96.7377L79.07 96.0787L80.433 95.3647L81.763 94.5977L83.058 93.7797L84.316 92.9107L85.537 91.9927L86.719 91.0277L87.86 90.0157L88.96 88.9597L90.016 87.8607L91.027 86.7187L91.993 85.5367L92.911 84.3157L93.78 83.0577L94.598 81.7627L95.365 80.4337L96.078 79.0707L96.737 77.6757L97.34 76.2497L97.886 74.7957L98.372 73.3137L98.798 71.8047L99.163 70.2707L99.464 68.7137L99.701 67.1347L99.872 65.5357L99.976 63.9167L100.011 62.2797"/><rect id="shape1" transform="matrix(0.705276046057735 -0.708932788674056 0.708932788674056 0.705276046057735 125.674496371762 146.786359538134)" fill-rule="evenodd" stroke="#000000" stroke-opacity="0" stroke-width="0" stroke-linecap="square" stroke-linejoin="bevel" width="65.52" height="23.04"/>
</svg>
